<?xml version="1.0" encoding="UTF-8" standalone="no"?>
<!-- Generator: Adobe Illustrator 19.0.0, SVG Export Plug-In . SVG Version: 6.00 Build 0)  -->

<svg
   version="1.1"
   id="Capa_1"
   x="0px"
   y="0px"
   viewBox="0 0 512.001 512.001"
   style="enable-background:new 0 0 512.001 512.001;"
   xml:space="preserve"
   sodipodi:docname="clusterBlue.svg"
   inkscape:version="1.1 (c68e22c387, 2021-05-23)"
   xmlns:inkscape="http://www.inkscape.org/namespaces/inkscape"
   xmlns:sodipodi="http://sodipodi.sourceforge.net/DTD/sodipodi-0.dtd"
   xmlns:xlink="http://www.w3.org/1999/xlink"
   xmlns="http://www.w3.org/2000/svg"
   xmlns:svg="http://www.w3.org/2000/svg"><defs
   id="defs89"><color-profile
     name="sRGB-IEC61966-2.1"
     xlink:href="file:///C:/WINDOWS/system32/spool/drivers/color/sRGB%20Color%20Space%20Profile.icm"
     id="color-profile1024" /></defs><sodipodi:namedview
   id="namedview87"
   pagecolor="#ffffff"
   bordercolor="#666666"
   borderopacity="1.0"
   inkscape:pageshadow="2"
   inkscape:pageopacity="0.0"
   inkscape:pagecheckerboard="0"
   showgrid="false"
   inkscape:zoom="1.5527313"
   inkscape:cx="51.844126"
   inkscape:cy="256.0005"
   inkscape:window-width="1920"
   inkscape:window-height="1013"
   inkscape:window-x="-9"
   inkscape:window-y="-9"
   inkscape:window-maximized="1"
   inkscape:current-layer="Capa_1" />
<g
   id="g54"
   style="fill:#1877f2;fill-opacity:1">
	<g
   id="g52"
   style="fill:#1877f2;fill-opacity:1">
		<path
   d="M417.657,300.976c-24.328,0-46.206,10.652-61.247,27.525l-34.034-20.561c6.297-14.284,9.802-30.065,9.802-46.651    c0-31.564-12.673-60.218-33.191-81.16l48.5-61.729c7.73,3.476,16.289,5.427,25.299,5.427c34.139,0,61.914-27.774,61.914-61.914    S406.927,0,372.788,0s-61.913,27.774-61.913,61.914c0,4.413,0.473,8.717,1.354,12.871c1.973,9.291,6.04,17.811,11.676,25.058    l-48.495,61.723c-17.358-10.356-37.629-16.317-59.27-16.317c-29.384,0-56.247,10.984-76.713,29.056l-29.553-25.833    c2.846-6.353,4.442-13.382,4.442-20.78c0-3.636-0.389-7.182-1.116-10.605c-4.895-23.057-25.406-40.41-49.899-40.41    c-28.131,0-51.016,22.885-51.016,51.015c0,28.13,22.885,51.016,51.016,51.016c9.833,0,19.021-2.804,26.819-7.643l29.543,25.823    c-12.349,18.439-19.561,40.593-19.561,64.404c0,32.45,13.395,61.826,34.939,82.905l-36.737,48.865    c-7.412-3.144-15.558-4.885-24.103-4.885c-34.139,0-61.914,27.774-61.914,61.914S40.06,512.001,74.2,512.001    s61.914-27.774,61.914-61.914c0-4.057-0.404-8.02-1.152-11.863c-1.975-10.13-6.422-19.383-12.693-27.103l36.738-48.865    c16.877,9.588,36.377,15.073,57.136,15.073c36.661,0,69.4-17.094,90.681-43.725l34.035,20.562    c-3.389,8.986-5.258,18.711-5.258,28.868c0,5.378,0.535,10.63,1.527,15.722c7.357,37.75,40.66,66.336,80.53,66.336    c45.247,0,82.058-36.811,82.058-82.058C499.715,337.787,462.904,300.976,417.657,300.976z M372.788,30.009    c17.592,0,31.905,14.312,31.905,31.905s-14.312,31.905-31.905,31.905s-31.904-14.313-31.904-31.905    C340.884,44.322,355.195,30.009,372.788,30.009z M63.3,148.696c-11.584,0-21.006-9.424-21.006-21.006    c0-11.583,9.423-21.005,21.006-21.005c11.583,0,21.006,9.423,21.006,21.005C84.307,139.272,74.884,148.696,63.3,148.696z     M74.198,481.991c-17.592,0-31.905-14.312-31.905-31.905c0-17.592,14.312-31.905,31.905-31.905    c17.592,0,31.905,14.312,31.905,31.905C106.102,467.679,91.79,481.991,74.198,481.991z M216.14,347.319    c-47.438,0-86.03-38.593-86.03-86.03s38.594-86.031,86.03-86.031s86.03,38.594,86.03,86.031S263.577,347.319,216.14,347.319z     M417.658,435.082c-28.7,0-52.049-23.349-52.049-52.049c0-28.699,23.349-52.048,52.049-52.048c28.7,0,52.049,23.349,52.049,52.048    C469.707,411.732,446.358,435.082,417.658,435.082z"
   id="path50"
   style="fill:#1877f2;fill-opacity:1" />
	</g>
</g>
<g
   id="g56">
</g>
<g
   id="g58">
</g>
<g
   id="g60">
</g>
<g
   id="g62">
</g>
<g
   id="g64">
</g>
<g
   id="g66">
</g>
<g
   id="g68">
</g>
<g
   id="g70">
</g>
<g
   id="g72">
</g>
<g
   id="g74">
</g>
<g
   id="g76">
</g>
<g
   id="g78">
</g>
<g
   id="g80">
</g>
<g
   id="g82">
</g>
<g
   id="g84">
</g>
</svg>
