<svg height="511pt" viewBox="1 -11 511.99899 511" width="511pt" xmlns="http://www.w3.org/2000/svg"><path d="m248.859375 129.75h7.777344l14.460937 21.382812h30.617188l-17.863282-26.242187c10.207032-5.222656 16.042969-14.457031 16.042969-26.730469 0-19.679687-15.066406-32.074218-38.761719-32.074218h-40.945312v85.046874h28.671875zm0-41.550781h10.453125c7.894531 0 11.664062 3.765625 11.664062 9.960937 0 6.195313-3.769531 9.964844-11.664062 9.964844h-10.453125zm0 0"/><path d="m402.613281 329.578125c7.53125 0 13.730469 3.160156 19.074219 9.355469l18.347656-16.160156c-8.628906-10.570313-22.113281-16.402344-38.878906-16.402344-28.066406 0-48.113281 18.347656-48.113281 44.46875 0 26.125 20.046875 44.46875 47.503906 44.46875 12.511719 0 26.730469-3.765625 37.058594-10.8125v-35.964844h-24.910157v21.507812c-3.523437 1.457032-6.921874 2.066407-10.449218 2.066407-12.269532 0-20.289063-8.507813-20.289063-21.265625 0-13.121094 8.019531-21.261719 20.65625-21.261719zm0 0"/><path d="m145.914062 351.925781c7.777344-3.886719 11.785157-10.449219 11.785157-18.347656 0-12.875-10.933594-22.234375-34.382813-22.234375h-45.441406v85.050781h47.871094c23.449218 0 35.964844-8.628906 35.964844-23.449219 0-10.085937-5.832032-17.375-15.796876-21.019531zm-39.851562-20.53125h13.363281c6.441407 0 9.359375 2.183594 9.359375 6.316407 0 4.128906-2.917968 6.316406-9.359375 6.316406h-13.363281zm17.253906 44.953125h-17.253906v-13.363281h17.253906c6.316406 0 9.476563 2.308594 9.476563 6.679687 0 4.375-3.160157 6.683594-9.476563 6.683594zm0 0"/><path d="m418.027344 181.894531c.792968-6.480469 1.210937-13.074219 1.210937-19.765625 0-89.121094-72.511719-161.628906-161.632812-161.628906-89.121094 0-161.628907 72.507812-161.628907 161.628906 0 6.21875.363282 12.355469 1.050782 18.390625-57.058594 24.980469-97.027344 81.976563-97.027344 148.144531 0 89.125 72.507812 161.632813 161.628906 161.632813 35.199219 0 67.800782-11.316406 94.371094-30.492187 26.570312 19.175781 59.171875 30.492187 94.371094 30.492187 89.121094 0 161.628906-72.507813 161.628906-161.632813 0-64.980468-38.546875-121.117187-93.972656-146.769531zm-291.777344-19.765625c0-72.429687 58.925781-131.351562 131.355469-131.351562 72.429687 0 131.355469 58.921875 131.355469 131.351562 0 3.191406-.121094 6.355469-.34375 9.488282-12.269532-2.988282-25.074219-4.582032-38.246094-4.582032-35.199219 0-67.800782 11.316406-94.371094 30.492188-26.570312-19.175782-59.171875-30.492188-94.371094-30.492188-12.042968 0-23.78125 1.332032-35.078125 3.84375-.191406-2.894531-.300781-5.808594-.300781-8.75zm166.734375 166.535156c0 35.429688-14.101563 67.621094-36.984375 91.269532-22.882812-23.648438-36.984375-55.839844-36.984375-91.269532 0-3.191406.117187-6.351562.34375-9.488281 12.265625 2.988281 25.074219 4.585938 38.246094 4.585938 12.042969 0 23.78125-1.335938 35.082031-3.84375.191406 2.890625.296875 5.804687.296875 8.746093zm-35.378906-35.179687c-11.246094 0-22.167969-1.421875-32.59375-4.09375 6.199219-19.734375 16.9375-37.472656 30.988281-51.996094 14.222656 14.699219 25.050781 32.699219 31.210938 52.726563-9.519532 2.199218-19.429688 3.363281-29.605469 3.363281zm-60.882813-14.992187c-30.738281-16.148438-54.328125-44.113282-64.695312-77.820313 9.515625-2.199219 19.425781-3.363281 29.605468-3.363281 26.101563 0 50.445313 7.65625 70.914063 20.835937-16.019531 17.066407-28.378906 37.605469-35.824219 60.347657zm82.730469-60.347657c20.46875-13.179687 44.816406-20.835937 70.917969-20.835937 11.246094 0 22.164062 1.425781 32.589844 4.097656-10.792969 34.378906-35.371094 62.707031-67.226563 78.492188-7.390625-23.304688-19.933594-44.335938-36.28125-61.753907zm-249.175781 110.519531c0-51.566406 29.875-96.285156 73.222656-117.769531 13.792969 43.488281 45.515625 79.058594 86.449219 98.003907-.792969 6.480468-1.210938 13.074218-1.210938 19.765624 0 42.710938 16.660157 81.59375 43.808594 110.519532-20.46875 13.179687-44.8125 20.835937-70.914063 20.835937-72.433593 0-131.355468-58.925781-131.355468-131.355469zm320.09375 131.355469c-26.101563 0-50.449219-7.65625-70.917969-20.835937 27.148437-28.925782 43.808594-67.808594 43.808594-110.519532 0-6.21875-.367188-12.351562-1.054688-18.390624 41.960938-18.371094 74.671875-54.054688 89.046875-97.96875 41.855469 21.988281 70.46875 65.890624 70.46875 116.359374 0 72.429688-58.921875 131.355469-131.351562 131.355469zm0 0"/></svg>