<?xml version="1.0" encoding="UTF-8" standalone="no"?>
<svg
   version="1.1"
   x="0px"
   y="0px"
   viewBox="0 0 90 58.448338"
   enable-background="new 0 0 100 100"
   xml:space="preserve"
   id="svg1009"
   sodipodi:docname="us-map.svg"
   width="90"
   height="58.448338"
   inkscape:version="1.1 (c68e22c387, 2021-05-23)"
   xmlns:inkscape="http://www.inkscape.org/namespaces/inkscape"
   xmlns:sodipodi="http://sodipodi.sourceforge.net/DTD/sodipodi-0.dtd"
   xmlns="http://www.w3.org/2000/svg"
   xmlns:svg="http://www.w3.org/2000/svg"><defs
     id="defs1013" /><sodipodi:namedview
     id="namedview1011"
     pagecolor="#ffffff"
     bordercolor="#666666"
     borderopacity="1.0"
     inkscape:pageshadow="2"
     inkscape:pageopacity="0.0"
     inkscape:pagecheckerboard="0"
     showgrid="false"
     inkscape:zoom="6.592"
     inkscape:cx="44.978762"
     inkscape:cy="41.793083"
     inkscape:window-width="1920"
     inkscape:window-height="1013"
     inkscape:window-x="-9"
     inkscape:window-y="-9"
     inkscape:window-maximized="1"
     inkscape:current-layer="svg1009" /><g
     id="g1003"
     style="fill:#1877f2;fill-opacity:1"
     transform="translate(-5,-20.775663)"><polygon
       fill="#000000"
       points="94.476,26.109 94.476,26.108 "
       id="polygon999"
       style="fill:#1877f2;fill-opacity:1" /><path
       fill="#000000"
       d="m 95,28.934 c 0,-0.939 -0.168,-1.885 -0.511,-2.792 L 94.488,26.14 94.476,26.107 c -0.217,-0.576 -0.607,-1.042 -1.073,-1.345 -0.467,-0.304 -1.002,-0.455 -1.537,-0.455 -0.477,0 -0.959,0.12 -1.393,0.37 -0.434,0.248 -0.815,0.632 -1.07,1.117 l -1.056,2 c -1.039,1.435 -2.467,2.543 -4.117,3.19 l -0.892,0.35 c -0.953,0.374 -1.721,1.106 -2.14,2.04 -0.432,0.964 -1.113,1.795 -1.974,2.408 l -0.35,0.25 c -0.554,0.394 -1.054,0.858 -1.491,1.379 l -1.767,2.111 c -0.114,0.135 -0.245,0.231 -0.389,0.298 -0.145,0.066 -0.303,0.1 -0.462,0.1 -0.295,-0.002 -0.579,-0.111 -0.802,-0.343 -0.192,-0.201 -0.301,-0.468 -0.306,-0.746 L 73.631,37.367 C 73.604,35.833 72.48,34.54 70.964,34.3 c -0.289,-0.046 -0.579,-0.068 -0.867,-0.068 -1.488,0 -2.929,0.598 -3.983,1.683 l -0.482,0.496 c -0.271,0.277 -0.609,0.404 -0.96,0.406 -0.215,0 -0.43,-0.051 -0.621,-0.15 -0.191,-0.099 -0.359,-0.243 -0.494,-0.442 -0.155,-0.231 -0.229,-0.488 -0.229,-0.748 10e-4,-0.379 0.157,-0.749 0.461,-1.013 l 0.036,-0.031 c 0.577,-0.502 0.908,-1.229 0.908,-1.994 0,-1.135 -0.724,-2.143 -1.799,-2.506 L 59.127,28.649 C 56.024,27.603 52.783,27.023 49.509,26.928 47.318,26.864 45.14,26.569 43.011,26.047 l -0.81,-0.199 C 40.709,25.482 39.193,25.22 37.664,25.065 L 21.275,23.398 c -1.542,-0.157 -3.07,-0.429 -4.571,-0.814 L 9.777,20.808 C 9.486,20.733 9.177,20.79 8.931,20.963 8.685,21.136 8.528,21.408 8.5,21.707 l -0.654,7.068 c -0.125,1.351 -0.51,2.664 -1.135,3.869 -0.802,1.547 -1.274,3.243 -1.385,4.982 L 5.038,42.14 V 42.139 C 5.012,42.543 5,42.945 5,43.346 c 0,3.802 1.144,7.527 3.299,10.683 1.738,2.547 4.072,4.631 6.799,6.072 L 27.773,66.8 c 0.11,0.058 0.222,0.113 0.333,0.169 l 0.033,0.017 c 0.611,0.306 1.236,0.58 1.877,0.817 l 6.396,2.371 c 2.838,1.052 5.337,2.856 7.229,5.219 l 2.11,2.634 c 0.615,0.768 1.537,1.197 2.492,1.197 0.271,0 0.546,-0.035 0.816,-0.106 1.395,-0.369 2.369,-1.626 2.378,-3.069 l 0.011,-1.933 c 0.003,-0.439 0.172,-0.831 0.453,-1.13 0.282,-0.297 0.664,-0.489 1.102,-0.518 l 4.555,-0.293 c 1.776,-0.114 3.515,-0.559 5.128,-1.31 1.625,-0.757 3.393,-1.148 5.181,-1.148 0.216,0 0.432,0.006 0.649,0.017 l 1.238,0.066 c 1.451,0.077 2.786,0.82 3.615,2.014 l 3.521,5.067 c 0.271,0.391 0.629,0.695 1.022,0.892 0.393,0.198 0.819,0.293 1.24,0.293 0.535,0 1.067,-0.153 1.528,-0.455 0.461,-0.301 0.846,-0.762 1.059,-1.331 0.41,-1.087 0.615,-2.231 0.615,-3.373 0,-1.178 -0.218,-2.356 -0.653,-3.472 l -0.597,-1.531 c -0.331,-0.848 -0.493,-1.735 -0.493,-2.62 0,-1.439 0.43,-2.865 1.268,-4.084 l 1.953,-2.842 c 0.077,-0.112 0.145,-0.229 0.217,-0.343 0.031,-0.043 0.06,-0.086 0.084,-0.133 0.973,-1.6 1.491,-3.43 1.491,-5.295 0,-0.406 -0.024,-0.814 -0.073,-1.222 v -0.001 c -0.04,-0.323 -0.059,-0.649 -0.059,-0.974 0,-0.795 0.117,-1.587 0.348,-2.351 l 0.687,-2.277 c 0.614,-2.033 1.903,-3.796 3.654,-4.998 1.393,-0.957 2.218,-2.535 2.218,-4.212 0,-0.106 -0.003,-0.213 -0.01,-0.32 V 36.23 L 92.38,36.087 v -0.004 c -0.004,-0.052 -0.005,-0.107 -0.005,-0.165 0,-0.655 0.238,-1.29 0.672,-1.786 C 94.326,32.669 95,30.815 95,28.934 Z M 83.513,51.612 v -0.001 c 0.039,0.325 0.059,0.651 0.059,0.976 0,1.106 -0.231,2.196 -0.666,3.209 l -1.831,-1.567 -0.016,-0.011 c -0.03,-0.025 -0.063,-0.045 -0.095,-0.066 l -0.075,-0.048 c -0.029,-0.016 -0.061,-0.027 -0.092,-0.04 -0.031,-0.013 -0.06,-0.027 -0.092,-0.037 -0.031,-0.01 -0.064,-0.014 -0.096,-0.021 -0.032,-0.006 -0.064,-0.015 -0.097,-0.018 -0.033,-0.003 -0.066,-0.002 -0.099,-0.002 -0.034,0 -0.067,-0.002 -0.1,0.001 -0.029,0.003 -0.058,0.01 -0.088,0.015 -0.038,0.007 -0.076,0.013 -0.113,0.024 l -0.019,0.004 -1.41,0.451 -0.388,-0.29 -0.895,-1.365 6.105,-1.303 c 0.003,0.029 0.004,0.059 0.008,0.089 z m -3.325,8.425 C 80.042,60.25 79.907,60.468 79.78,60.69 L 77.988,58.52 77.96,58.492 c -0.024,-0.027 -0.051,-0.053 -0.079,-0.078 l -0.074,-0.063 c -0.026,-0.019 -0.053,-0.036 -0.081,-0.053 -0.032,-0.019 -0.064,-0.037 -0.097,-0.053 l -0.034,-0.019 -2.426,-1.019 0.018,-0.454 2.165,-0.709 0.529,0.396 0.06,0.036 c 0.033,0.021 0.066,0.043 0.101,0.061 0.03,0.015 0.061,0.025 0.091,0.036 0.031,0.012 0.062,0.025 0.095,0.034 0.033,0.009 0.065,0.013 0.098,0.019 0.033,0.006 0.065,0.012 0.099,0.014 0.034,0.002 0.067,0 0.101,-10e-4 0.033,-0.001 0.065,-0.001 0.098,-0.005 0.039,-0.005 0.076,-0.015 0.114,-0.024 l 0.07,-0.015 1.368,-0.438 1.685,1.443 z m -1.412,3.264 -1.292,-0.18 -0.017,-0.001 c -0.038,-0.005 -0.077,-0.004 -0.116,-0.004 -0.03,0 -0.061,-0.003 -0.091,0 -0.029,0.002 -0.059,0.009 -0.088,0.015 -0.039,0.007 -0.077,0.012 -0.115,0.023 l -0.017,0.003 -3.684,1.133 -0.195,-2.193 -0.006,-0.031 c -0.004,-0.035 -0.012,-0.069 -0.02,-0.104 -0.008,-0.035 -0.016,-0.069 -0.027,-0.102 l -0.008,-0.031 -1.659,-4.442 1.673,-0.213 -0.027,0.664 10e-4,0.02 c -10e-4,0.039 0.003,0.076 0.007,0.115 0.003,0.03 0.004,0.06 0.009,0.09 0.006,0.033 0.016,0.064 0.025,0.095 0.009,0.033 0.017,0.066 0.029,0.097 0.012,0.029 0.028,0.056 0.041,0.084 0.016,0.03 0.029,0.061 0.047,0.09 0.018,0.028 0.04,0.054 0.061,0.08 l 0.06,0.074 0.074,0.066 c 0.025,0.022 0.05,0.045 0.077,0.065 l 0.075,0.045 c 0.034,0.02 0.067,0.04 0.103,0.056 l 0.018,0.01 2.85,1.197 2.327,2.817 c -0.04,0.154 -0.081,0.307 -0.115,0.462 z M 65,65.259 l 0.009,0.059 0.004,0.059 0.411,2.5 c -0.433,0.075 -0.862,0.17 -1.286,0.284 L 63.96,66.438 V 66.436 66.432 L 63.953,66.396 C 63.946,66.342 63.936,66.288 63.92,66.235 63.91,66.203 63.895,66.175 63.883,66.144 63.87,66.112 63.859,66.08 63.843,66.05 63.818,66.004 63.787,65.962 63.756,65.92 l -0.025,-0.037 -0.003,-0.004 -0.001,-0.001 -1.705,-2.06 -0.238,-1.865 0.097,-2.894 0.276,-0.492 2.516,-0.321 z M 51.953,59.833 51.891,59.831 c -0.037,-0.003 -0.074,-0.005 -0.112,-0.004 -0.033,0.001 -0.066,0.005 -0.099,0.01 -0.033,0.004 -0.065,0.009 -0.098,0.016 -0.037,0.009 -0.072,0.02 -0.107,0.033 L 51.416,59.904 48.81,60.997 46.101,59.703 46.09,57.979 46.082,57.9 c -0.003,-0.036 -0.005,-0.071 -0.011,-0.106 -0.006,-0.033 -0.016,-0.064 -0.025,-0.095 -0.01,-0.033 -0.018,-0.066 -0.031,-0.097 -0.012,-0.031 -0.028,-0.059 -0.044,-0.089 -0.015,-0.029 -0.03,-0.059 -0.048,-0.087 -0.018,-0.028 -0.039,-0.052 -0.059,-0.078 L 45.8,57.273 45.728,57.208 c -0.025,-0.022 -0.05,-0.044 -0.077,-0.063 -0.027,-0.019 -0.056,-0.034 -0.084,-0.05 -0.029,-0.016 -0.057,-0.033 -0.088,-0.047 -0.031,-0.014 -0.063,-0.023 -0.096,-0.034 -0.031,-0.01 -0.062,-0.022 -0.095,-0.029 -0.034,-0.008 -0.07,-0.011 -0.105,-0.015 l -0.078,-0.011 -4.18,-0.165 0.069,-1.691 c 1.196,0.024 2.372,0.035 3.524,0.035 3.067,0 5.975,-0.074 8.732,-0.168 l 0.005,0.087 v 0 0 l 0.305,4.995 z m -24.219,4.626 -7.417,-3.92 -0.038,-0.502 0.873,-1.182 0.03,-0.052 c 0.02,-0.03 0.038,-0.06 0.055,-0.092 0.015,-0.03 0.028,-0.06 0.04,-0.091 0.012,-0.031 0.023,-0.061 0.032,-0.093 0.009,-0.033 0.016,-0.065 0.022,-0.098 0.006,-0.032 0.011,-0.064 0.013,-0.097 0.003,-0.034 0.003,-0.067 0.003,-0.101 0,-0.032 -0.002,-0.064 -0.005,-0.097 -0.004,-0.036 -0.011,-0.072 -0.019,-0.107 l -0.01,-0.058 -0.367,-1.311 1.041,-1.519 0.011,-0.02 c 0.02,-0.031 0.037,-0.065 0.053,-0.098 0.015,-0.028 0.03,-0.056 0.042,-0.085 0.011,-0.028 0.018,-0.058 0.027,-0.087 0.011,-0.037 0.022,-0.074 0.029,-0.112 l 0.005,-0.021 0.18,-1.167 c 2.186,0.332 4.315,0.601 6.388,0.815 z M 8.532,33.589 c 0.437,-0.843 0.773,-1.731 1.009,-2.646 l 0.967,0.056 0.098,1.546 0.005,0.027 10e-4,0.029 0.016,0.074 c 0.007,0.034 0.013,0.069 0.023,0.102 0.01,0.033 0.023,0.063 0.036,0.094 0.013,0.031 0.025,0.062 0.041,0.092 0.016,0.03 0.035,0.057 0.053,0.085 0.018,0.027 0.036,0.054 0.056,0.079 l 0.068,0.073 0.07,0.067 c 0.025,0.021 0.052,0.039 0.079,0.058 0.027,0.019 0.054,0.037 0.083,0.053 0.029,0.016 0.059,0.028 0.089,0.041 0.03,0.013 0.06,0.027 0.092,0.037 0.032,0.01 0.065,0.017 0.099,0.024 0.032,0.007 0.064,0.014 0.098,0.018 0.035,0.004 0.07,0.004 0.106,0.004 l 0.075,0.003 0.028,-0.005 0.028,-10e-4 2.255,-0.268 3.133,-0.111 1.223,0.278 -0.79,1.921 -0.004,0.014 c -0.015,0.037 -0.024,0.077 -0.035,0.116 l -0.022,0.08 c -0.006,0.032 -0.006,0.065 -0.009,0.097 -0.003,0.035 -0.008,0.07 -0.007,0.104 l 0.008,0.077 c 0.004,0.042 0.007,0.084 0.016,0.125 l 0.002,0.014 0.381,1.61 -0.365,2.155 C 13.595,38.951 10.416,38.245 7.39,37.576 7.503,36.186 7.889,34.83 8.532,33.589 Z m 15.277,-7.871 -0.729,4.047 -0.005,0.069 c -0.005,0.039 -0.01,0.078 -0.009,0.118 0,0.034 0.005,0.066 0.008,0.099 0.003,0.033 0.005,0.066 0.012,0.099 0.008,0.039 0.021,0.076 0.033,0.114 l 0.019,0.066 0.881,2.192 -0.136,3.445 v 0.004 l -10e-4,0.004 c -0.001,0.035 0.005,0.069 0.007,0.103 0.002,0.034 0.001,0.068 0.007,0.101 0.006,0.034 0.018,0.067 0.027,0.1 0.009,0.032 0.015,0.064 0.026,0.095 0.012,0.032 0.03,0.061 0.045,0.091 0.014,0.029 0.026,0.059 0.043,0.086 0.018,0.029 0.041,0.054 0.061,0.081 l 0.058,0.076 0.075,0.067 0.072,0.064 c 0.027,0.02 0.058,0.035 0.087,0.052 0.028,0.016 0.054,0.035 0.084,0.049 0.031,0.014 0.065,0.023 0.097,0.035 0.031,0.011 0.06,0.024 0.093,0.032 0.034,0.008 0.07,0.01 0.105,0.015 0.033,0.004 0.064,0.012 0.098,0.014 h 0.004 0.004 l 2.407,0.078 -0.473,4.23 c -2.701,-0.433 -5.092,-0.848 -7.253,-1.248 l 0.406,-2.397 c 0.012,-0.067 0.016,-0.136 0.014,-0.206 -0.002,-0.07 -0.011,-0.139 -0.027,-0.206 l -0.352,-1.489 1.126,-2.738 0.003,-0.009 c 0.011,-0.027 0.017,-0.056 0.025,-0.084 l 0.024,-0.07 0.002,-0.017 0.007,-0.03 0.002,-0.008 1.237,-7.303 z m 49.652,15.97 c 0.415,0.188 0.86,0.285 1.303,0.284 l 0.014,-0.001 0.668,2.983 -0.794,1.221 -1.4,1.099 -1.028,0.328 -1.412,-0.623 -0.674,-4.198 z m 8.356,1.19 -4.499,1.041 -0.59,-2.634 c 0.073,-0.058 0.146,-0.117 0.214,-0.182 l 5.275,-1.333 z m -1.141,5.539 2.995,-0.175 c -0.084,0.391 -0.142,0.787 -0.18,1.185 l -4.74,1.012 z m -6.742,3.051 -9.24,1.473 0.881,-1.482 1.422,0.463 0.06,0.013 c 0.036,0.009 0.072,0.018 0.109,0.024 0.033,0.005 0.065,0.007 0.097,0.008 0.033,0.002 0.066,0.003 0.099,0.001 0.034,-0.002 0.067,-0.006 0.1,-0.011 0.032,-0.005 0.064,-0.01 0.096,-0.018 0.032,-0.008 0.062,-0.018 0.093,-0.029 0.032,-0.011 0.063,-0.023 0.094,-0.037 0.03,-0.014 0.058,-0.03 0.087,-0.047 0.028,-0.017 0.056,-0.033 0.083,-0.053 0.03,-0.022 0.057,-0.046 0.085,-0.071 l 0.048,-0.04 1.473,-1.505 0.002,-0.003 c 0.024,-0.024 0.043,-0.054 0.064,-0.081 0.022,-0.028 0.047,-0.055 0.066,-0.084 l 0.002,-0.003 0.628,-0.998 1.467,0.647 0.059,0.019 c 0.035,0.013 0.069,0.025 0.105,0.034 0.032,0.008 0.063,0.013 0.095,0.018 0.034,0.005 0.067,0.01 0.102,0.012 0.034,0.002 0.068,10e-4 0.102,-0.001 0.032,-0.002 0.064,-0.003 0.097,-0.008 0.036,-0.005 0.072,-0.014 0.108,-0.023 l 0.06,-0.013 0.739,-0.236 0.989,1.97 z m -5.79,-8.168 0.67,4.175 -0.836,1.328 -0.951,0.972 -0.797,-0.259 0.181,-1.548 v -0.012 c 0.004,-0.035 0.002,-0.07 0.002,-0.106 0,-0.035 0.002,-0.071 -10e-4,-0.105 v -0.012 l -0.45,-3.988 z m -6.376,11.368 -2.239,-0.971 -0.036,-0.012 c -0.034,-0.013 -0.07,-0.024 -0.105,-0.034 -0.031,-0.009 -0.063,-0.017 -0.094,-0.022 -0.032,-0.005 -0.064,-0.008 -0.096,-0.011 -0.037,-0.003 -0.074,-0.005 -0.111,-0.003 l -0.038,-0.001 -3.793,0.272 10e-4,-0.013 C 55.254,53.799 55.243,53.728 55.226,53.659 L 54.954,49.201 C 54.952,49.172 54.944,49.145 54.94,49.117 54.936,49.089 54.936,49.062 54.93,49.034 L 54.598,47.588 V 47.587 C 54.591,47.559 54.58,47.532 54.571,47.504 54.561,47.473 54.553,47.442 54.54,47.413 l -0.008,-0.02 -0.039,-0.068 c -0.016,-0.029 -0.031,-0.059 -0.05,-0.086 l -0.008,-0.014 3.266,-0.19 v 1.17 0 0.014 l 0.006,0.063 c 0.003,0.044 0.005,0.089 0.013,0.133 0.006,0.033 0.018,0.064 0.027,0.096 0.01,0.032 0.017,0.064 0.03,0.096 0.017,0.041 0.039,0.079 0.061,0.118 l 0.029,0.056 0.008,0.012 1.636,2.503 0.025,0.031 c 0.02,0.029 0.043,0.056 0.067,0.083 l 0.074,0.077 0.028,0.029 2.424,2.064 z m -21.967,-12.33 7.316,-0.034 2.636,0.928 0.127,1.412 0.006,0.029 c 0.005,0.037 0.013,0.073 0.021,0.109 0.007,0.031 0.014,0.063 0.024,0.093 0.01,0.03 0.023,0.058 0.036,0.087 0.015,0.035 0.03,0.069 0.049,0.101 l 0.013,0.026 1.028,1.67 -8.26,-0.096 0.018,-1.107 c 0,-0.033 -0.006,-0.064 -0.008,-0.096 -0.003,-0.035 -0.003,-0.07 -0.009,-0.104 -0.006,-0.034 -0.018,-0.065 -0.027,-0.097 -0.009,-0.032 -0.016,-0.066 -0.028,-0.097 -0.012,-0.031 -0.03,-0.059 -0.045,-0.089 -0.015,-0.029 -0.028,-0.06 -0.046,-0.087 -0.018,-0.028 -0.04,-0.052 -0.06,-0.078 L 42.531,44.831 42.457,44.767 42.382,44.703 C 42.355,44.684 42.326,44.67 42.297,44.654 42.268,44.637 42.24,44.619 42.21,44.605 42.179,44.591 42.146,44.583 42.113,44.572 42.082,44.562 42.051,44.548 42.019,44.541 41.985,44.533 41.948,44.531 41.913,44.527 41.882,44.523 41.852,44.516 41.82,44.515 41.075,44.494 40.375,44.472 39.712,44.449 Z m 2.962,6.379 10.014,0.117 0.133,0.577 0.214,3.511 c -2.728,0.092 -5.594,0.165 -8.607,0.165 -0.601,0 -1.211,-0.004 -1.824,-0.01 z m 12.966,-16.338 -0.015,0.018 -0.041,0.044 -0.05,0.062 -0.039,0.051 -0.028,0.046 -0.038,0.071 -0.03,0.062 -0.017,0.046 -0.023,0.078 -0.018,0.072 -0.006,0.022 -0.002,0.026 -0.007,0.074 -0.004,0.078 0.002,0.06 v 0.025 l 0.292,3.349 0.001,0.006 c 0.005,0.055 0.017,0.109 0.031,0.163 l 0.007,0.037 c 0.01,0.035 0.027,0.068 0.042,0.102 0.012,0.028 0.021,0.058 0.035,0.085 l 0.027,0.041 c 0.027,0.044 0.054,0.089 0.087,0.128 l 0.004,0.005 1.71,2.054 1.014,2.112 -0.846,1.608 -0.015,0.038 c -0.016,0.033 -0.029,0.067 -0.041,0.101 -0.011,0.031 -0.021,0.062 -0.029,0.094 -0.008,0.031 -0.013,0.062 -0.018,0.094 -0.006,0.037 -0.01,0.074 -0.011,0.111 l -0.004,0.039 v 1.598 l -5.147,0.3 -0.651,-1.057 -0.163,-1.821 -0.175,-2.291 V 36.242 L 51.56,36.211 C 51.559,36.176 51.554,36.141 51.549,36.106 51.544,36.071 51.54,36.035 51.531,36.001 L 51.526,35.97 50.669,32.84 50.574,29.353 50.573,29.345 C 50.572,29.302 50.563,29.26 50.556,29.217 L 50.545,29.141 50.521,29.07 50.507,29.029 c 2.485,0.157 4.941,0.616 7.317,1.36 z m -6.218,4.001 v 3.769 l 0.004,0.038 -10e-4,0.04 0.059,0.767 -1.943,-0.684 -0.063,-0.015 c -0.035,-0.01 -0.071,-0.02 -0.108,-0.026 -0.037,-0.006 -0.073,-0.008 -0.109,-0.011 l -0.065,-0.006 -7.395,0.034 0.187,-4.305 h 9.324 z m -11.853,7.993 c -1.7,-0.072 -3.119,-0.151 -4.372,-0.243 -1.762,-0.129 -3.204,-0.28 -4.672,-0.465 l 0.72,-6.436 8.602,0.737 z M 14.612,41.225 c 1.13,0.229 2.322,0.463 3.591,0.703 h 0.001 10e-4 c 1.177,0.222 2.421,0.449 3.746,0.681 l -1.486,9.608 v 0 0 l -0.302,1.954 -0.364,0.532 -6.246,-8.468 z m 8.037,10.296 1.324,-8.565 c 0.837,0.141 1.705,0.283 2.607,0.427 l -0.118,1.056 c -0.004,0.031 0,0.062 -0.001,0.093 -10e-4,0.035 -0.004,0.07 -10e-4,0.104 0.003,0.034 0.011,0.067 0.017,0.1 0.006,0.033 0.01,0.066 0.019,0.098 0.009,0.033 0.023,0.063 0.036,0.094 0.012,0.03 0.022,0.061 0.037,0.09 0.015,0.03 0.035,0.057 0.053,0.085 0.017,0.027 0.033,0.056 0.053,0.081 l 0.067,0.072 0.068,0.07 0.079,0.058 c 0.027,0.019 0.053,0.04 0.082,0.057 0.029,0.017 0.06,0.028 0.091,0.042 0.031,0.014 0.06,0.03 0.092,0.04 0.032,0.01 0.067,0.016 0.101,0.024 0.03,0.007 0.059,0.017 0.09,0.021 v 0 c 0.745,0.1 1.47,0.191 2.213,0.275 l -0.635,6.476 c -2.035,-0.208 -4.127,-0.472 -6.274,-0.798 z m 8.952,-5.468 c 0.49,0.044 0.999,0.085 1.536,0.124 1.526,0.111 3.277,0.205 5.457,0.287 v 0 0 c 0.673,0.025 1.389,0.05 2.151,0.073 l -0.105,6.507 c -3.077,-0.068 -6.299,-0.228 -9.674,-0.526 z m 24.073,14.978 -0.311,-5.095 3.58,-0.257 1.995,0.865 -0.972,1.73 -0.015,0.035 c -0.017,0.032 -0.03,0.066 -0.044,0.1 -0.012,0.031 -0.024,0.061 -0.032,0.093 -0.008,0.03 -0.014,0.061 -0.02,0.093 -0.007,0.037 -0.012,0.074 -0.015,0.112 l -0.005,0.036 -0.081,2.397 -3.797,0.677 z m 7.701,-4.685 0.39,-1.179 10.519,-1.677 0.026,-0.007 0.027,-0.003 0.911,-0.194 0.698,1.062 -1.981,0.649 z m 16.777,-9.954 -0.069,0.011 c -0.038,0.005 -0.076,0.009 -0.114,0.018 -0.031,0.008 -0.061,0.019 -0.091,0.029 -0.033,0.011 -0.065,0.022 -0.097,0.036 -0.031,0.015 -0.06,0.033 -0.09,0.05 -0.028,0.016 -0.056,0.032 -0.082,0.051 -0.031,0.023 -0.059,0.049 -0.088,0.075 l -0.053,0.045 -3.487,3.663 -0.947,-1.887 1.02,-0.801 0.043,-0.042 0.077,-0.075 c 0.025,-0.027 0.047,-0.056 0.069,-0.085 l 0.037,-0.046 0.897,-1.379 5.109,-1.182 0.9,1.339 z M 86.685,34.074 86.683,34.066 C 86.675,34.031 86.662,33.997 86.65,33.963 86.639,33.931 86.631,33.897 86.617,33.866 l -0.003,-0.008 -0.648,-1.412 c 0.541,-0.275 1.057,-0.592 1.545,-0.948 l 0.851,1.947 -1.579,1.088 z m -6.27,3.381 c 1.158,-0.825 2.075,-1.943 2.656,-3.24 0.197,-0.44 0.558,-0.785 1.006,-0.964 l 0.625,1.36 0.391,1.845 10e-4,0.006 v 0.002 l 0.01,0.03 0.001,0.004 0.006,0.035 0.665,2.324 -0.48,-0.176 -1.184,-1.04 -10e-4,-10e-4 -0.005,-0.005 c -0.025,-0.022 -0.055,-0.04 -0.082,-0.06 L 83.95,37.521 83.94,37.515 C 83.913,37.5 83.885,37.49 83.857,37.477 83.828,37.463 83.799,37.448 83.769,37.437 l -0.012,-0.004 c -0.029,-0.01 -0.06,-0.014 -0.09,-0.022 -0.032,-0.008 -0.064,-0.017 -0.097,-0.022 -0.034,-0.005 -0.068,-0.004 -0.102,-0.005 -0.033,-10e-4 -0.064,-0.005 -0.097,-0.003 h -0.014 c -0.033,0.002 -0.063,0.01 -0.095,0.015 l -0.028,0.005 -0.058,0.009 -0.009,0.002 h -0.001 l -3.912,0.989 c 0.249,-0.256 0.519,-0.491 0.811,-0.698 z M 67.584,37.346 c 0.665,-0.684 1.574,-1.061 2.512,-1.061 0.182,0 0.364,0.014 0.547,0.043 0.532,0.084 0.927,0.538 0.936,1.076 l 0.026,1.464 c 0.007,0.412 0.096,0.815 0.256,1.188 l -3.137,1.033 -3.14,0.64 -0.052,-0.2 0.968,-1.025 0.036,-0.047 c 0.024,-0.029 0.047,-0.057 0.068,-0.088 0.018,-0.027 0.034,-0.055 0.049,-0.084 0.016,-0.029 0.031,-0.059 0.044,-0.09 0.013,-0.031 0.023,-0.062 0.033,-0.094 0.01,-0.032 0.019,-0.063 0.025,-0.096 0.007,-0.032 0.011,-0.063 0.014,-0.095 0.004,-0.034 0.006,-0.067 0.007,-0.102 0,-0.033 -0.002,-0.065 -0.005,-0.097 -0.003,-0.033 -0.006,-0.065 -0.012,-0.098 -0.007,-0.036 -0.017,-0.071 -0.027,-0.106 l -0.015,-0.059 -0.373,-1.022 c 0.272,-0.155 0.528,-0.347 0.757,-0.582 z m -3.27,1.502 0.258,0.706 -0.922,0.976 -0.01,0.013 c -0.027,0.029 -0.049,0.062 -0.072,0.094 l -0.05,0.07 c -0.017,0.029 -0.03,0.06 -0.044,0.09 -0.014,0.03 -0.03,0.059 -0.042,0.09 -0.011,0.03 -0.017,0.062 -0.025,0.094 -0.008,0.032 -0.019,0.064 -0.024,0.097 -0.005,0.031 -0.004,0.064 -0.006,0.096 -0.002,0.034 -0.006,0.068 -0.005,0.103 10e-4,0.028 0.007,0.055 0.01,0.083 0.005,0.04 0.009,0.08 0.018,0.119 l 0.002,0.016 0.421,1.621 0.535,4.732 -0.239,2.048 -1.061,1.783 -1.912,-1.628 -1.396,-2.135 v -4.28 l 0.968,-1.84 0.025,-0.062 c 0.015,-0.034 0.03,-0.068 0.042,-0.104 0.01,-0.031 0.017,-0.063 0.023,-0.095 0.007,-0.033 0.014,-0.065 0.018,-0.099 0.004,-0.033 0.004,-0.066 0.005,-0.099 10e-4,-0.033 10e-4,-0.066 -0.001,-0.1 -0.003,-0.033 -0.009,-0.066 -0.015,-0.099 -0.006,-0.032 -0.011,-0.064 -0.02,-0.096 -0.01,-0.036 -0.024,-0.07 -0.038,-0.105 L 60.734,40.873 59.441,38.181 59.43,38.163 c -0.016,-0.031 -0.036,-0.061 -0.056,-0.091 -0.019,-0.029 -0.037,-0.06 -0.058,-0.087 l -0.012,-0.017 -1.586,-1.905 -0.148,-1.703 1.741,0.299 1.965,0.75 -0.004,0.068 c -10e-4,0.654 0.19,1.318 0.579,1.895 0.328,0.489 0.767,0.868 1.254,1.119 0.383,0.195 0.792,0.313 1.209,0.357 z m -1.634,-6.41 c 0,0.171 -0.074,0.334 -0.203,0.447 l -0.036,0.031 c -0.191,0.166 -0.36,0.35 -0.505,0.547 l -1.975,-0.754 -0.003,-0.001 -0.006,-0.002 c -0.033,-0.012 -0.066,-0.018 -0.099,-0.027 -0.031,-0.009 -0.061,-0.02 -0.094,-0.026 l -0.006,-10e-4 -0.004,-10e-4 -1.124,-0.193 1.408,-1.337 2.243,0.756 c 0.242,0.081 0.404,0.307 0.404,0.561 z M 42.521,28.039 c 1.861,0.456 3.758,0.748 5.668,0.876 l 0.339,0.711 0.093,3.394 0.002,0.017 c 0.001,0.035 0.008,0.07 0.013,0.105 0.005,0.035 0.009,0.07 0.017,0.104 l 0.003,0.017 0.182,0.665 H 40.164 L 40.44,27.56 c 0.425,0.086 0.849,0.177 1.27,0.28 z m -4.119,-0.82 -0.377,8.695 -9.512,-0.814 h -0.027 l -0.027,-0.004 -2.484,-0.08 0.104,-2.632 -0.001,-0.01 C 26.079,32.332 26.074,32.29 26.07,32.248 l -0.006,-0.08 -0.021,-0.079 c -0.01,-0.041 -0.02,-0.081 -0.035,-0.12 l -0.003,-0.009 -0.853,-2.122 0.705,-3.912 11.599,1.18 c 0.316,0.032 0.631,0.071 0.946,0.113 z M 19.979,25.308 18.942,31.426 17.464,31.09 17.437,31.087 c -0.034,-0.007 -0.069,-0.01 -0.105,-0.013 -0.035,-0.003 -0.071,-0.007 -0.106,-0.007 l -0.027,-0.002 -3.309,0.117 -0.042,0.006 -0.042,0.001 -1.221,0.145 -0.087,-1.371 -0.007,-0.041 C 12.487,29.886 12.481,29.851 12.474,29.816 12.467,29.784 12.46,29.752 12.451,29.721 12.441,29.688 12.428,29.657 12.415,29.626 12.402,29.595 12.389,29.565 12.373,29.537 12.357,29.508 12.339,29.481 12.321,29.454 12.302,29.427 12.284,29.4 12.263,29.374 L 12.196,29.302 12.125,29.236 C 12.099,29.215 12.072,29.196 12.044,29.178 12.017,29.16 11.99,29.142 11.962,29.127 11.933,29.111 11.903,29.098 11.872,29.085 11.841,29.072 11.81,29.059 11.777,29.049 11.746,29.04 11.715,29.033 11.683,29.026 11.648,29.019 11.613,29.012 11.577,29.009 l -0.04,-0.006 -1.64,-0.095 0.537,-5.813 5.762,1.477 c 1.244,0.32 2.509,0.564 3.783,0.736 z M 9.994,52.873 C 8.073,50.059 7.053,46.737 7.052,43.346 c 0,-0.358 0.011,-0.717 0.034,-1.075 V 42.27 l 0.167,-2.622 c 1.688,0.373 3.437,0.759 5.349,1.161 l -1.153,5.451 -0.003,0.029 c -0.007,0.037 -0.009,0.074 -0.012,0.111 -0.002,0.031 -0.006,0.061 -0.005,0.092 10e-4,0.034 0.005,0.068 0.01,0.102 0.004,0.032 0.006,0.064 0.013,0.096 0.007,0.032 0.018,0.063 0.028,0.095 0.01,0.032 0.02,0.064 0.033,0.095 0.012,0.028 0.028,0.055 0.043,0.083 0.018,0.032 0.035,0.064 0.056,0.095 l 0.015,0.025 7.264,9.848 0.31,1.109 -0.801,1.086 -0.029,0.049 c -0.02,0.03 -0.039,0.061 -0.056,0.094 -0.015,0.029 -0.028,0.058 -0.04,0.088 -0.012,0.029 -0.023,0.058 -0.032,0.089 l -2.19,-1.157 C 13.625,57.003 11.544,55.144 9.994,52.873 Z m 19.704,12.584 1.068,-10.896 c 2.832,0.251 5.556,0.404 8.175,0.489 l -0.355,8.717 -5.902,-0.36 -0.043,0.002 c -0.036,-10e-4 -0.072,10e-4 -0.108,0.004 -0.033,0.003 -0.065,0.006 -0.096,0.012 -0.034,0.006 -0.066,0.015 -0.099,0.024 -0.032,0.009 -0.063,0.019 -0.094,0.031 -0.03,0.012 -0.059,0.026 -0.088,0.041 -0.029,0.015 -0.059,0.031 -0.087,0.049 -0.028,0.018 -0.053,0.037 -0.079,0.057 l -0.075,0.063 -0.068,0.073 -0.061,0.076 c -0.019,0.027 -0.036,0.055 -0.053,0.084 -0.017,0.029 -0.033,0.059 -0.047,0.09 -0.013,0.03 -0.024,0.06 -0.035,0.092 -0.011,0.034 -0.021,0.067 -0.029,0.103 L 31.61,64.25 31.279,66.085 30.727,65.88 c -0.346,-0.13 -0.69,-0.271 -1.029,-0.423 z m 23.172,4.964 c -0.97,0.062 -1.841,0.497 -2.462,1.158 -0.623,0.659 -1.007,1.554 -1.012,2.526 l -0.011,1.933 c -0.003,0.515 -0.351,0.965 -0.85,1.097 -0.097,0.026 -0.195,0.038 -0.292,0.038 -0.341,0 -0.672,-0.154 -0.89,-0.428 l -2.11,-2.634 c -2.125,-2.653 -4.931,-4.678 -8.118,-5.86 l -3.889,-1.442 0.234,-1.298 6.037,0.368 h 0.01 l 0.01,10e-4 c 0.032,0.001 0.062,-0.004 0.093,-0.006 0.035,-0.002 0.07,-10e-4 0.104,-0.006 0.034,-0.005 0.065,-0.016 0.098,-0.024 0.033,-0.008 0.066,-0.014 0.097,-0.026 0.032,-0.012 0.061,-0.028 0.091,-0.043 0.029,-0.014 0.06,-0.026 0.087,-0.043 0.029,-0.017 0.054,-0.039 0.081,-0.059 l 0.077,-0.058 0.068,-0.073 0.064,-0.072 c 0.02,-0.027 0.036,-0.057 0.054,-0.086 0.017,-0.027 0.035,-0.053 0.049,-0.083 0.015,-0.031 0.025,-0.066 0.038,-0.099 0.011,-0.03 0.024,-0.059 0.032,-0.09 0.009,-0.035 0.012,-0.072 0.018,-0.109 0.004,-0.029 0.012,-0.057 0.014,-0.087 v -0.01 l 0.002,-0.011 0.246,-6.051 3.204,0.126 0.009,1.386 0.007,0.063 c 0.003,0.038 0.005,0.076 0.012,0.113 0.006,0.032 0.015,0.063 0.023,0.094 0.009,0.032 0.018,0.064 0.03,0.095 0.012,0.031 0.027,0.061 0.042,0.091 0.015,0.029 0.03,0.058 0.047,0.086 0.018,0.028 0.037,0.053 0.057,0.079 l 0.065,0.078 0.072,0.067 c 0.025,0.022 0.049,0.043 0.076,0.062 0.03,0.022 0.063,0.04 0.095,0.058 l 0.056,0.034 3.704,1.769 0.027,0.01 c 0.034,0.015 0.068,0.026 0.103,0.037 0.03,0.01 0.059,0.02 0.09,0.027 0.033,0.007 0.066,0.01 0.099,0.014 0.033,0.004 0.065,0.009 0.098,0.01 0.033,10e-4 0.065,-0.003 0.097,-0.005 0.034,-0.003 0.068,-0.004 0.101,-0.01 0.03,-0.005 0.06,-0.014 0.091,-0.023 0.036,-0.01 0.071,-0.019 0.105,-0.032 l 0.027,-0.008 2.772,-1.162 1.953,0.268 0.949,2.631 0.024,0.05 0.02,0.053 0.976,1.993 -0.771,2.271 -0.014,0.059 c -0.01,0.035 -0.018,0.069 -0.024,0.105 -0.006,0.036 -0.009,0.072 -0.011,0.109 L 55.045,69.5 v 0.781 z m 4.555,-0.293 -0.328,0.021 V 69.67 l 0.855,-2.507 v 0 -0.002 l 0.005,-0.022 c 0.018,-0.057 0.032,-0.115 0.04,-0.174 0.004,-0.03 0.002,-0.059 0.004,-0.088 0.002,-0.037 0.005,-0.074 0.003,-0.112 -0.002,-0.035 -0.01,-0.069 -0.016,-0.103 -0.005,-0.032 -0.008,-0.063 -0.016,-0.095 -0.014,-0.053 -0.035,-0.104 -0.057,-0.154 l -0.013,-0.034 -1.138,-2.324 -0.101,-0.279 3.207,-0.571 0.15,1.172 0.016,0.069 c 0.008,0.038 0.014,0.077 0.027,0.114 0.01,0.032 0.025,0.062 0.038,0.093 0.013,0.03 0.025,0.061 0.041,0.09 0.02,0.035 0.043,0.067 0.067,0.1 l 0.039,0.057 1.701,2.054 0.198,1.909 c -0.11,0.048 -0.221,0.092 -0.329,0.143 -1.382,0.643 -2.872,1.024 -4.393,1.122 z m 10.441,-2.463 c -0.132,0 -0.264,0.007 -0.396,0.011 l -0.423,-2.572 -0.335,-7.114 2.639,-0.336 1.779,4.763 0.217,2.439 -1.554,0.38 -0.031,0.011 c -0.036,0.01 -0.071,0.024 -0.106,0.038 -0.029,0.012 -0.058,0.023 -0.085,0.037 -0.03,0.015 -0.058,0.034 -0.087,0.052 -0.028,0.018 -0.056,0.035 -0.082,0.056 l -0.072,0.065 -0.07,0.071 c -0.022,0.025 -0.04,0.052 -0.059,0.08 -0.019,0.026 -0.037,0.052 -0.053,0.08 -0.016,0.029 -0.03,0.059 -0.043,0.09 -0.014,0.031 -0.028,0.061 -0.038,0.093 -0.01,0.029 -0.016,0.06 -0.024,0.09 -0.009,0.037 -0.017,0.073 -0.021,0.11 l -0.006,0.032 -0.141,1.559 -0.251,-0.013 c -0.253,-0.015 -0.506,-0.022 -0.758,-0.022 z m 11.953,7.89 c -0.063,0.163 -0.152,0.263 -0.266,0.34 -0.114,0.075 -0.258,0.118 -0.401,0.118 -0.112,0 -0.221,-0.025 -0.316,-0.074 -0.096,-0.049 -0.181,-0.118 -0.26,-0.23 l -3.522,-5.067 c -0.987,-1.419 -2.471,-2.393 -4.136,-2.75 l 0.076,-0.838 1.698,-0.415 0.024,-0.009 0.032,-0.007 h 0.002 l 4.677,-1.438 1.133,0.158 c 0.007,1.116 0.215,2.237 0.632,3.306 l 0.597,1.531 c 0.342,0.876 0.513,1.801 0.513,2.726 0,0.898 -0.161,1.795 -0.483,2.649 z m 4.871,-30.781 -0.879,-1.309 0.391,-3.031 0.039,0.025 c 0.034,0.02 0.07,0.035 0.105,0.051 l 0.065,0.031 2.168,0.795 c -0.821,1.023 -1.461,2.185 -1.889,3.438 z m 4.329,-5.704 c -0.298,0.205 -0.584,0.424 -0.86,0.654 l -0.872,-3.047 2.518,-1.735 0.584,0.19 c -0.043,0.258 -0.068,0.52 -0.068,0.785 0,0.098 0.003,0.199 0.01,0.304 v -0.004 l 0.009,0.143 v -0.002 c 0.004,0.064 0.006,0.129 0.006,0.194 0,1.001 -0.493,1.946 -1.327,2.518 z m 2.484,-6.292 c -0.125,0.142 -0.236,0.293 -0.342,0.447 l -0.765,-0.248 -1.271,-2.908 c 0.33,-0.354 0.641,-0.727 0.924,-1.123 0.027,-0.038 0.05,-0.078 0.071,-0.118 l 10e-4,0.001 1.095,-2.074 c 0.079,-0.147 0.171,-0.233 0.279,-0.297 0.108,-0.062 0.236,-0.096 0.369,-0.096 0.149,0 0.297,0.043 0.414,0.12 0.117,0.079 0.21,0.181 0.278,0.356 v 10e-4 l 0.012,0.031 c 0.254,0.671 0.378,1.37 0.378,2.065 0.002,1.391 -0.496,2.762 -1.443,3.843 z"
       id="path1001"
       style="fill:#1877f2;fill-opacity:1" /></g></svg>
